<svg xmlns="http://www.w3.org/2000/svg" version="1.1" xmlns:xlink="http://www.w3.org/1999/xlink" xmlns:svgjs="http://svgjs.dev/svgjs" width="1000" height="750" viewBox="0 0 1000 750"><rect width="1000" height="750" fill="#4f86c6"></rect><g transform="matrix(0.834,0,0,0.834,82.49456666302586,115.4193570850203)"><svg viewBox="0 0 396 247" data-background-color="#4f86c6" preserveAspectRatio="xMidYMid meet" height="623" width="1000" xmlns="http://www.w3.org/2000/svg" xmlns:xlink="http://www.w3.org/1999/xlink"><g id="tight-bounds" transform="matrix(1,0,0,1,0.23999002661525992,-0.09999999999999432)"><svg viewBox="0 0 395.52 247.2" height="247.2" width="395.52"><g><svg></svg></g><g><svg viewBox="0 0 395.52 247.2" height="247.2" width="395.52"><g><g><path xmlns="http://www.w3.org/2000/svg" d="M153.681 247.197h-48.495c0.761-4.213 1.142-8.806 1.142-13.779v-68.102h47.353zM106.328 0.003h37.151l52.041 81.881-89.192 0zM241.992 12.64c0-6.801-0.634-11.014-1.904-12.637h50.246c-0.66 4.974-0.99 10.43-0.989 16.368v65.513h-47.353zM289.345 247.197h-38.598l-53.374-81.881 91.972 0z" fill="#171930" fill-rule="nonzero" stroke="none" stroke-width="1" stroke-linecap="butt" stroke-linejoin="miter" stroke-miterlimit="10" stroke-dasharray="" stroke-dashoffset="0" font-family="none" font-weight="none" font-size="none" text-anchor="none" style="mix-blend-mode: normal" data-fill-palette-color="tertiary"></path></g></g><g transform="matrix(1,0,0,1,0,88.12288984231881)"><svg viewBox="0 0 395.52 70.95422031536235" height="70.95422031536235" width="395.52"><g><svg viewBox="0 0 395.52 70.95422031536235" height="70.95422031536235" width="395.52"><g><svg viewBox="0 0 395.52 70.95422031536235" height="70.95422031536235" width="395.52"><g><svg viewBox="0 0 395.52 70.95422031536235" height="70.95422031536235" width="395.52"><g><svg viewBox="0 0 395.52 70.95422031536235" height="70.95422031536235" width="395.52"><g><svg viewBox="0 0 395.52 42.75556948143506" height="42.75556948143506" width="395.52"><g transform="matrix(1,0,0,1,0,0)"><svg width="395.52" viewBox="4.420000076293945 -33.08000183105469 311.6399841308594 33.69000244140625" height="42.75556948143506" data-palette-color="#171930"><path d="M10.79 0L4.42 0Q4.57-0.83 4.57-1.81L4.57-1.81 4.57-32.47 9.45-32.47 22.39-12.11 22.39-30.81Q22.39-32.15 22.14-32.47L22.14-32.47 28.74-32.47Q28.61-31.49 28.61-30.32L28.61-30.32 28.61 0 23.54 0 10.79-19.56 10.79 0ZM40.04-3.86Q37.81-5.98 36.53-8.96 35.25-11.94 35.25-15.49 35.25-19.04 36.45-22.22 37.64-25.39 39.87-27.81 42.09-30.22 45.24-31.65 48.39-33.08 52.29-33.08L52.29-33.08Q59.03-33.08 63.64-28.83L63.64-28.83Q68.58-24.29 68.58-16.58L68.58-16.58Q68.58-9.11 63.5-4.15L63.5-4.15Q60.37-1.1 56.05 0.05L56.05 0.05Q53.93 0.61 51.08 0.61 48.24 0.61 45.25-0.56 42.26-1.73 40.04-3.86ZM42.04-15.82L42.04-15.82Q42.04-13.55 42.8-11.65 43.55-9.74 44.89-8.37L44.89-8.37Q47.75-5.49 52.24-5.49L52.24-5.49Q56.52-5.49 59.1-8.25L59.1-8.25Q61.74-11.11 61.74-16.04L61.74-16.04Q61.74-20.68 59.23-23.78L59.23-23.78Q56.52-27.1 51.8-27.1L51.8-27.1Q47.24-27.1 44.55-23.73L44.55-23.73Q42.04-20.58 42.04-15.82ZM88.79 0.02L88.74 0.1Q87.96 0 86.18 0L86.18 0 83.49 0Q82.83 0 82.29 0.05L82.29 0.05 82.27 0Q82.37-0.17 82.37-0.39 82.37-0.61 82.33-0.85 82.29-1.1 82.12-1.73 81.95-2.37 81.59-3.56L81.59-3.56 80.56-6.84 71.48-32.57Q72.99-32.47 75.34-32.47 77.68-32.47 78.34-32.67L78.34-32.67 85.69-10.47 92.13-32.57Q93.6-32.47 95.75-32.47L95.75-32.47Q98.68-32.47 99.16-32.67L99.16-32.67 90.25-6.91Q90.25-6.91 89.4-4.05L89.4-4.05Q88.69-1.61 88.69-0.89 88.69-0.17 88.79 0.02L88.79 0.02ZM106.63-3.86Q104.41-5.98 103.13-8.96 101.85-11.94 101.85-15.49 101.85-19.04 103.04-22.22 104.24-25.39 106.46-27.81 108.68-30.22 111.83-31.65 114.98-33.08 118.89-33.08L118.89-33.08Q125.63-33.08 130.24-28.83L130.24-28.83Q135.17-24.29 135.17-16.58L135.17-16.58Q135.17-9.11 130.1-4.15L130.1-4.15Q126.97-1.1 122.65 0.05L122.65 0.05Q120.52 0.61 117.68 0.61 114.84 0.61 111.85-0.56 108.85-1.73 106.63-3.86ZM108.64-15.82L108.64-15.82Q108.64-13.55 109.39-11.65 110.15-9.74 111.49-8.37L111.49-8.37Q114.35-5.49 118.84-5.49L118.84-5.49Q123.11-5.49 125.7-8.25L125.7-8.25Q128.34-11.11 128.34-16.04L128.34-16.04Q128.34-20.68 125.82-23.78L125.82-23.78Q123.11-27.1 118.4-27.1L118.4-27.1Q113.84-27.1 111.15-23.73L111.15-23.73Q108.64-20.58 108.64-15.82ZM161.05-30.66L161.05-30.66 160.59-23.49 160.41-23.44Q158.61-26.15 154.26-26.95L154.26-26.95Q152.9-27.22 151.64-27.22 150.38-27.22 149.49-27 148.6-26.78 147.96-26.37L147.96-26.37Q146.62-25.49 146.62-24.07L146.62-24.07Q146.62-22.22 147.79-21.29L147.79-21.29Q149.26-20.17 152.65-19.71 156.04-19.26 158.1-18.48 160.15-17.7 161.46-16.5L161.46-16.5Q163.95-14.26 163.95-10.16L163.95-10.16Q163.95-4.79 159.9-1.88L159.9-1.88Q156.44 0.61 151.16 0.61L151.16 0.61Q146.91 0.61 142.76-1L142.76-1Q141.4-1.54 140.37-2.25L140.37-2.25 140.64-10.4 140.74-10.47Q143.76-5.25 150.67-5.25L150.67-5.25Q155.58-5.25 157.17-7.62L157.17-7.62Q157.7-8.42 157.7-9.41 157.7-10.4 157.39-11.05 157.07-11.69 156.34-12.16L156.34-12.16Q154.92-13.09 151.58-13.4 148.23-13.72 146.11-14.6 143.98-15.48 142.71-16.77L142.71-16.77Q140.42-19.12 140.42-23.32L140.42-23.32Q140.42-27.66 143.47-30.35L143.47-30.35Q146.57-33.08 151.83-33.08 157.09-33.08 161.05-30.66ZM171.33 0L171.33-32.57Q173.77-32.47 174.28-32.47L174.28-32.47 176.04-32.47Q177.33-32.47 178.11-32.67L178.11-32.67 178.09 0 171.33 0ZM207.79-2.38Q205.99-0.95 203.13-0.17 200.28 0.61 196.12 0.61 191.95 0.61 187.27-0.15L187.27-0.15 187.27-32.32Q192-33.08 195.48-33.08 198.96-33.08 201.19-32.42 203.43-31.76 204.84-30.64L204.84-30.64Q207.63-28.47 207.63-25.01 207.63-21.56 205.11-19.29L205.11-19.29Q208.09-18.36 209.73-15.77L209.73-15.77Q211.22-13.45 211.22-10.63 211.22-7.81 210.4-5.81 209.58-3.81 207.79-2.38ZM193.74-27.81L193.74-20.19Q194.76-20.02 196.3-20.02 197.84-20.02 198.83-20.42 199.81-20.83 200.35-21.44L200.35-21.44Q201.23-22.44 201.23-24.22L201.23-24.22Q201.23-27.95 196.84-27.95L196.84-27.95Q194.98-27.95 193.74-27.81L193.74-27.81ZM197.35-14.97L197.35-14.97Q195.3-14.97 193.74-14.7L193.74-14.7 193.74-5.1Q195.44-4.66 197.32-4.66 199.2-4.66 200.63-5.11 202.06-5.57 203.04-6.35L203.04-6.35Q205.01-7.96 205.01-10.45L205.01-10.45Q205.01-14.97 197.35-14.97ZM217.24 0L217.24-32.57Q219.68-32.47 220.2-32.47L220.2-32.47 221.96-32.47Q223.25-32.47 224.03-32.67L224.03-32.67 224.01 0 217.24 0ZM249.35 0.2L243.68-12.62Q242.95-12.57 242.12-12.57 241.29-12.57 239.65-12.7L239.65-12.7 239.65 0 233.18 0 233.18-32.64Q236.6-33.08 241.58-33.08L241.58-33.08Q248.37-33.08 251.7-30.58 255.03-28.08 255.03-22.85L255.03-22.85Q255.03-18.8 251.98-15.92L251.98-15.92Q250.98-14.99 249.69-14.31L249.69-14.31 254.67-3.81Q256.13-0.56 256.91 0.05L256.91 0.05 256.79 0.17Q254.42-0.22 249.35 0.2L249.35 0.2ZM242.05-27.32L242.05-27.32Q240.8-27.32 239.65-27.2L239.65-27.2 239.65-17.87Q240.85-17.7 242.46-17.7 244.07-17.7 245.17-17.98 246.27-18.26 247.07-18.85L247.07-18.85Q248.81-20.14 248.81-22.73 248.81-25.32 247-26.37L247-26.37Q245.32-27.32 242.05-27.32ZM281.91-30.66L281.91-30.66 281.45-23.49 281.28-23.44Q279.47-26.15 275.12-26.95L275.12-26.95Q273.76-27.22 272.5-27.22 271.24-27.22 270.35-27 269.46-26.78 268.83-26.37L268.83-26.37Q267.48-25.49 267.48-24.07L267.48-24.07Q267.48-22.22 268.65-21.29L268.65-21.29Q270.12-20.17 273.51-19.71 276.91-19.26 278.96-18.48 281.01-17.7 282.33-16.5L282.33-16.5Q284.82-14.26 284.82-10.16L284.82-10.16Q284.82-4.79 280.76-1.88L280.76-1.88Q277.3 0.61 272.02 0.61L272.02 0.61Q267.78 0.61 263.62-1L263.62-1Q262.26-1.54 261.23-2.25L261.23-2.25 261.5-10.4 261.6-10.47Q264.63-5.25 271.54-5.25L271.54-5.25Q276.44-5.25 278.03-7.62L278.03-7.62Q278.57-8.42 278.57-9.41 278.57-10.4 278.25-11.05 277.93-11.69 277.2-12.16L277.2-12.16Q275.78-13.09 272.44-13.4 269.09-13.72 266.97-14.6 264.85-15.48 263.58-16.77L263.58-16.77Q261.28-19.12 261.28-23.32L261.28-23.32Q261.28-27.66 264.33-30.35L264.33-30.35Q267.43-33.08 272.69-33.08 277.96-33.08 281.91-30.66ZM297.66-9.89L297.66 0.15Q295.97 0 293.36 0L293.36 0 291.43 0 291.43-32.57 292.41-32.52Q293.43-32.47 293.94-32.47L293.94-32.47 294.65-32.47Q296.8-32.47 297.66-32.67L297.66-32.67 297.66-18.87 307.54-32.57Q309.11-32.47 310.18-32.47L310.18-32.47 311.52-32.47Q314.04-32.47 315.11-32.67L315.11-32.67 305.69-20.36 314.97-1.95Q315.55-0.61 316.06 0L316.06 0 314.57 0Q309.42 0 308.15 0.2L308.15 0.2Q307.89-1.44 307.42-2.66L307.42-2.66 301.2-14.53 297.66-9.89Z" opacity="1" transform="matrix(1,0,0,1,0,0)" fill="#171930" class="undefined-text-0" data-fill-palette-color="primary" id="text-0"></path></svg></g></svg></g><g transform="matrix(1,0,0,1,0,48.99463320244399)"><svg viewBox="0 0 395.52 21.95958711291836" height="21.95958711291836" width="395.52"><g transform="matrix(1,0,0,1,0,0)"><svg width="395.52" viewBox="2.3499999046325684 -34.900001525878906 639.3500366210938 35.5" height="21.95958711291836" data-palette-color="#171930"><path d="M19.05 0.6Q10.75 0.6 6.55-3.83 2.35-8.25 2.35-17.15L2.35-17.15Q2.35-26.05 6.55-30.48 10.75-34.9 19.05-34.9L19.05-34.9Q25.75-34.9 29.78-31.58 33.8-28.25 33.8-21.9L33.8-21.9 28.95-21.9Q28.95-26.3 26.33-28.58 23.7-30.85 19.05-30.85L19.05-30.85Q13-30.85 10.15-27.65 7.3-24.45 7.25-17.25L7.25-17.25 7.25-17.15Q7.25-9.9 10.1-6.68 12.95-3.45 19.05-3.45L19.05-3.45Q23.8-3.45 26.48-5.7 29.15-7.95 29.15-12.3L29.15-12.3 33.8-12.3Q33.8-5.9 29.8-2.65 25.8 0.6 19.05 0.6L19.05 0.6ZM40.05 0L40.05-34.3 44.8-34.3 44.8-19.6 63.5-19.6 63.5-34.3 68.25-34.3 68.25 0 63.5 0 63.5-15.45 44.8-15.45 44.8 0 40.05 0ZM72.55 0L85.85-34.3 91.9-34.3 105.2 0 100.15 0 96.7-9.15 80.8-9.15 77.45 0 72.55 0ZM82.35-13.3L95.15-13.3 91.15-24 88.85-30.2 88.6-30.2 86.35-24.1 82.35-13.3ZM109.49 0L109.49-34.3 116.54-34.3 124.74-10.9Q125.44-8.9 126.29-5.75L126.29-5.75 126.49-5.75Q127.39-9.25 127.99-10.9L127.99-10.9 136.24-34.3 143.24-34.3 143.24 0 138.49 0 138.49-22.65 138.59-29.05 138.24-29.05Q137.84-27 137.39-25.75L137.39-25.75 128.09 0 124.14 0 114.99-25.75Q114.59-26.8 114.14-29.05L114.14-29.05 113.84-29.05 113.94-22.65 113.94 0 109.49 0ZM151.14 0L151.14-34.3 167.69-34.3Q171.99-34.3 174.62-32 177.24-29.7 177.24-25.9L177.24-25.9Q177.24-23 175.64-20.9 174.04-18.8 171.54-18L171.54-18 171.54-17.8Q174.59-17.1 176.39-14.9 178.19-12.7 178.19-9.1L178.19-9.1Q178.19-4.5 175.32-2.25 172.44 0 167.69 0L167.69 0 151.14 0ZM155.89-19.65L166.74-19.65Q169.29-19.65 170.84-21.13 172.39-22.6 172.39-24.95L172.39-24.95Q172.39-27.55 170.99-28.85 169.59-30.15 167.14-30.15L167.14-30.15 155.89-30.15 155.89-19.65ZM155.89-4.15L167.59-4.15Q173.34-4.15 173.34-9.7L173.34-9.7Q173.34-15.5 167.24-15.5L167.24-15.5 155.89-15.5 155.89-4.15ZM184.49 0L184.49-34.3 210.89-34.3 210.89-30.15 189.24-30.15 189.24-19.6 208.69-19.6 208.69-15.45 189.24-15.45 189.24-4.15 211.19-4.15 211.19 0 184.49 0ZM217.84 0L217.84-34.3 235.69-34.3Q240.84-34.3 243.59-31.65 246.34-29 246.34-24.55L246.34-24.55Q246.34-21.05 244.66-18.5 242.99-15.95 240.04-14.85L240.04-14.85 247.94 0 242.64 0 235.19-14.15 222.59-14.15 222.59 0 217.84 0ZM222.59-18.3L235.44-18.3Q238.24-18.3 239.89-19.95 241.54-21.6 241.54-24.5L241.54-24.5Q241.54-27.2 239.99-28.68 238.44-30.15 235.44-30.15L235.44-30.15 222.59-30.15 222.59-18.3ZM283.33 0.6Q275.18 0.6 270.7-3.88 266.23-8.35 266.23-17.15L266.23-17.15Q266.23-25.95 270.7-30.43 275.18-34.9 283.33-34.9L283.33-34.9Q291.53-34.9 296-30.43 300.48-25.95 300.48-17.15L300.48-17.15Q300.48-8.4 296-3.9 291.53 0.6 283.33 0.6L283.33 0.6ZM283.33-3.45Q289.28-3.45 292.43-6.68 295.58-9.9 295.58-16.95L295.58-16.95 295.58-17.15Q295.53-24.3 292.38-27.58 289.23-30.85 283.33-30.85L283.33-30.85Q277.48-30.85 274.33-27.58 271.18-24.3 271.13-17.15L271.13-17.15 271.13-16.95Q271.13-9.9 274.28-6.68 277.43-3.45 283.33-3.45L283.33-3.45ZM306.73 0L306.73-34.3 331.03-34.3 331.03-30.15 311.48-30.15 311.48-19.25 329.23-19.25 329.23-15.1 311.48-15.1 311.48 0 306.73 0ZM366.27 0.6Q357.97 0.6 353.77-3.83 349.57-8.25 349.57-17.15L349.57-17.15Q349.57-26.05 353.77-30.48 357.97-34.9 366.27-34.9L366.27-34.9Q372.97-34.9 377-31.58 381.02-28.25 381.02-21.9L381.02-21.9 376.17-21.9Q376.17-26.3 373.55-28.58 370.92-30.85 366.27-30.85L366.27-30.85Q360.22-30.85 357.37-27.65 354.52-24.45 354.47-17.25L354.47-17.25 354.47-17.15Q354.47-9.9 357.32-6.68 360.17-3.45 366.27-3.45L366.27-3.45Q371.02-3.45 373.7-5.7 376.37-7.95 376.37-12.3L376.37-12.3 381.02-12.3Q381.02-5.9 377.02-2.65 373.02 0.6 366.27 0.6L366.27 0.6ZM402.77 0.6Q394.62 0.6 390.14-3.88 385.67-8.35 385.67-17.15L385.67-17.15Q385.67-25.95 390.14-30.43 394.62-34.9 402.77-34.9L402.77-34.9Q410.97-34.9 415.44-30.43 419.92-25.95 419.92-17.15L419.92-17.15Q419.92-8.4 415.44-3.9 410.97 0.6 402.77 0.6L402.77 0.6ZM402.77-3.45Q408.72-3.45 411.87-6.68 415.02-9.9 415.02-16.95L415.02-16.95 415.02-17.15Q414.97-24.3 411.82-27.58 408.67-30.85 402.77-30.85L402.77-30.85Q396.92-30.85 393.77-27.58 390.62-24.3 390.57-17.15L390.57-17.15 390.57-16.95Q390.57-9.9 393.72-6.68 396.87-3.45 402.77-3.45L402.77-3.45ZM426.17 0L426.17-34.3 433.22-34.3 441.42-10.9Q442.12-8.9 442.97-5.75L442.97-5.75 443.17-5.75Q444.07-9.25 444.67-10.9L444.67-10.9 452.92-34.3 459.92-34.3 459.92 0 455.17 0 455.17-22.65 455.27-29.05 454.92-29.05Q454.52-27 454.07-25.75L454.07-25.75 444.77 0 440.82 0 431.67-25.75Q431.27-26.8 430.82-29.05L430.82-29.05 430.52-29.05 430.62-22.65 430.62 0 426.17 0ZM467.82 0L467.82-34.3 474.87-34.3 483.07-10.9Q483.77-8.9 484.62-5.75L484.62-5.75 484.82-5.75Q485.72-9.25 486.32-10.9L486.32-10.9 494.57-34.3 501.57-34.3 501.57 0 496.82 0 496.82-22.65 496.92-29.05 496.57-29.05Q496.17-27 495.72-25.75L495.72-25.75 486.42 0 482.47 0 473.32-25.75Q472.92-26.8 472.47-29.05L472.47-29.05 472.17-29.05 472.27-22.65 472.27 0 467.82 0ZM509.46 0L509.46-34.3 535.86-34.3 535.86-30.15 514.21-30.15 514.21-19.6 533.66-19.6 533.66-15.45 514.21-15.45 514.21-4.15 536.16-4.15 536.16 0 509.46 0ZM542.81 0L542.81-34.3 560.66-34.3Q565.81-34.3 568.56-31.65 571.31-29 571.31-24.55L571.31-24.55Q571.31-21.05 569.63-18.5 567.96-15.95 565.01-14.85L565.01-14.85 572.91 0 567.61 0 560.16-14.15 547.56-14.15 547.56 0 542.81 0ZM547.56-18.3L560.41-18.3Q563.21-18.3 564.86-19.95 566.51-21.6 566.51-24.5L566.51-24.5Q566.51-27.2 564.96-28.68 563.41-30.15 560.41-30.15L560.41-30.15 547.56-30.15 547.56-18.3ZM594.01 0.6Q585.71 0.6 581.51-3.83 577.31-8.25 577.31-17.15L577.31-17.15Q577.31-26.05 581.51-30.48 585.71-34.9 594.01-34.9L594.01-34.9Q600.71-34.9 604.73-31.58 608.76-28.25 608.76-21.9L608.76-21.9 603.91-21.9Q603.91-26.3 601.28-28.58 598.66-30.85 594.01-30.85L594.01-30.85Q587.96-30.85 585.11-27.65 582.26-24.45 582.21-17.25L582.21-17.25 582.21-17.15Q582.21-9.9 585.06-6.68 587.91-3.45 594.01-3.45L594.01-3.45Q598.76-3.45 601.43-5.7 604.11-7.95 604.11-12.3L604.11-12.3 608.76-12.3Q608.76-5.9 604.76-2.65 600.76 0.6 594.01 0.6L594.01 0.6ZM615 0L615-34.3 641.4-34.3 641.4-30.15 619.75-30.15 619.75-19.6 639.2-19.6 639.2-15.45 619.75-15.45 619.75-4.15 641.7-4.15 641.7 0 615 0Z" opacity="1" transform="matrix(1,0,0,1,0,0)" fill="#171930" class="undefined-text-1" data-fill-palette-color="secondary" id="text-1"></path></svg></g></svg></g></svg></g></svg></g></svg></g></svg></g></svg></g></svg></g><defs></defs></svg><rect width="395.52" height="247.2" fill="none" stroke="none" visibility="hidden"></rect></g></svg></g></svg>